# This file uses centimeters as units for non-parametric coordinates.

mtllib Ground 3.mtl
g default
v 0.992116 -0.345070 -0.125333
v 0.968584 -0.345070 -0.248690
v 0.929777 -0.345070 -0.368125
v 0.876307 -0.345070 -0.481754
v 0.809018 -0.345070 -0.587786
v 0.728969 -0.345070 -0.684548
v 0.637425 -0.345070 -0.770514
v 0.535827 -0.345070 -0.844329
v 0.425780 -0.345070 -0.904828
v 0.309017 -0.345070 -0.951057
v 0.187381 -0.345070 -0.982288
v 0.062790 -0.345070 -0.998028
v -0.062791 -0.345070 -0.998028
v -0.187382 -0.345070 -0.982288
v -0.309017 -0.345070 -0.951057
v -0.425780 -0.345070 -0.904828
v -0.535827 -0.345070 -0.844328
v -0.637424 -0.345070 -0.770514
v -0.728969 -0.345070 -0.684547
v -0.809018 -0.345070 -0.587786
v -0.876307 -0.345070 -0.481754
v -0.929777 -0.345070 -0.368125
v -0.968584 -0.345070 -0.248690
v -0.992115 -0.345070 -0.125333
v -1.000001 -0.345070 0.000000
v -0.992115 -0.345070 0.125333
v -0.968584 -0.345070 0.248690
v -0.929777 -0.345070 0.368125
v -0.876307 -0.345070 0.481754
v -0.809017 -0.345070 0.587786
v -0.728969 -0.345070 0.684547
v -0.637424 -0.345070 0.770514
v -0.535827 -0.345070 0.844328
v -0.425779 -0.345070 0.904827
v -0.309017 -0.345070 0.951057
v -0.187381 -0.345070 0.982288
v -0.062790 -0.345070 0.998027
v 0.062791 -0.345070 0.998027
v 0.187381 -0.345070 0.982287
v 0.309017 -0.345070 0.951057
v 0.425779 -0.345070 0.904827
v 0.535827 -0.345070 0.844328
v 0.637424 -0.345070 0.770513
v 0.728969 -0.345070 0.684547
v 0.809017 -0.345070 0.587785
v 0.876307 -0.345070 0.481754
v 0.929776 -0.345070 0.368125
v 0.968583 -0.345070 0.248690
v 0.992115 -0.345070 0.125333
v 1.000000 -0.345070 0.000000
v 0.992116 0.345070 -0.125333
v 0.968584 0.345070 -0.248690
v 0.929777 0.345070 -0.368125
v 0.876307 0.345070 -0.481754
v 0.809018 0.345070 -0.587786
v 0.728969 0.345070 -0.684548
v 0.637425 0.345070 -0.770514
v 0.535827 0.345070 -0.844329
v 0.425780 0.345070 -0.904828
v 0.309017 0.345070 -0.951057
v 0.187381 0.345070 -0.982288
v 0.062790 0.345070 -0.998028
v -0.062791 0.345070 -0.998028
v -0.187382 0.345070 -0.982288
v -0.309017 0.345070 -0.951057
v -0.425780 0.345070 -0.904828
v -0.535827 0.345070 -0.844328
v -0.637424 0.345070 -0.770514
v -0.728969 0.345070 -0.684547
v -0.809018 0.345070 -0.587786
v -0.876307 0.345070 -0.481754
v -0.929777 0.345070 -0.368125
v -0.968584 0.345070 -0.248690
v -0.992115 0.345070 -0.125333
v -1.000001 0.345070 0.000000
v -0.992115 0.345070 0.125333
v -0.968584 0.345070 0.248690
v -0.929777 0.345070 0.368125
v -0.876307 0.345070 0.481754
v -0.809017 0.345070 0.587786
v -0.728969 0.345070 0.684547
v -0.637424 0.345070 0.770514
v -0.535827 0.345070 0.844328
v -0.425779 0.345070 0.904827
v -0.309017 0.345070 0.951057
v -0.187381 0.345070 0.982288
v -0.062790 0.345070 0.998027
v 0.062791 0.345070 0.998027
v 0.187381 0.345070 0.982287
v 0.309017 0.345070 0.951057
v 0.425779 0.345070 0.904827
v 0.535827 0.345070 0.844328
v 0.637424 0.345070 0.770513
v 0.728969 0.345070 0.684547
v 0.809017 0.345070 0.587785
v 0.876307 0.345070 0.481754
v 0.929776 0.345070 0.368125
v 0.968583 0.345070 0.248690
v 0.992115 0.345070 0.125333
v 1.000000 0.345070 0.000000
v 0.000000 0.345070 0.000000
vt 0.035956 0.017837
vt 0.065770 0.017837
vt 0.065770 0.492641
vt 0.035956 0.492641
vt 0.095583 0.017837
vt 0.095583 0.492641
vt 0.983933 0.498498
vt 0.009125 0.492641
vt 0.125396 0.017837
vt 0.125396 0.492641
vt 0.957101 0.498498
vt 0.957101 0.973303
vt 0.155209 0.017837
vt 0.155209 0.492641
vt 0.927288 0.498498
vt 0.927288 0.973303
vt 0.185023 0.017837
vt 0.185023 0.492641
vt 0.897475 0.498498
vt 0.897475 0.973303
vt 0.214836 0.017837
vt 0.214836 0.492641
vt 0.867661 0.498498
vt 0.867661 0.973303
vt 0.244649 0.017837
vt 0.244649 0.492641
vt 0.837848 0.498498
vt 0.837848 0.973303
vt 0.808035 0.498498
vt 0.808035 0.973303
vt 0.778222 0.498498
vt 0.778222 0.973303
vt 0.747787 0.498209
vt 0.747787 0.974063
vt 0.632221 0.017837
vt 0.662034 0.017837
vt 0.662034 0.492641
vt 0.632221 0.492641
vt 0.691848 0.017837
vt 0.691848 0.492641
vt 0.602408 0.017837
vt 0.602408 0.492641
vt 0.721661 0.017837
vt 0.721661 0.492641
vt 0.572595 0.017837
vt 0.572595 0.492641
vt 0.748493 0.017837
vt 0.754455 0.492641
vt 0.542781 0.017837
vt 0.542781 0.492641
vt 0.781287 0.017837
vt 0.781287 0.492641
vt 0.512968 0.017837
vt 0.512968 0.492641
vt 0.811100 0.017837
vt 0.811100 0.492641
vt 0.840914 0.017837
vt 0.840914 0.492641
vt 0.870727 0.017837
vt 0.870727 0.492641
vt 0.900540 0.017837
vt 0.900540 0.492641
vt 0.930353 0.017837
vt 0.930353 0.492641
vt 0.960167 0.017837
vt 0.960167 0.492641
vt 0.989980 0.017837
vt 0.989980 0.492641
vt 0.220704 0.967708
vt 0.191419 0.962121
vt 0.250459 0.732177
vt 0.163065 0.952908
vt 0.250459 0.969579
vt 0.136089 0.940214
vt 0.280213 0.967707
vt 0.110917 0.924240
vt 0.309498 0.962121
vt 0.087946 0.905236
vt 0.337852 0.952908
vt 0.067537 0.883503
vt 0.364828 0.940214
vt 0.050013 0.859384
vt 0.390000 0.924240
vt 0.035651 0.833258
vt 0.412972 0.905236
vt 0.024676 0.805538
vt 0.433380 0.883503
vt 0.017261 0.776662
vt 0.450904 0.859384
vt 0.013525 0.747084
vt 0.465267 0.833258
vt 0.013525 0.717270
vt 0.476242 0.805538
vt 0.017261 0.687692
vt 0.483656 0.776662
vt 0.024676 0.658816
vt 0.487393 0.747084
vt 0.035651 0.631096
vt 0.487393 0.717271
vt 0.050013 0.604971
vt 0.483656 0.687692
vt 0.067537 0.580851
vt 0.476242 0.658816
vt 0.087946 0.559118
vt 0.465267 0.631096
vt 0.110917 0.540115
vt 0.450904 0.604971
vt 0.136089 0.524140
vt 0.433380 0.580851
vt 0.163065 0.511446
vt 0.412972 0.559118
vt 0.191419 0.502233
vt 0.390000 0.540115
vt 0.220704 0.496647
vt 0.364828 0.524140
vt 0.250459 0.494775
vt 0.337852 0.511446
vt 0.280213 0.496647
vt 0.309498 0.502233
vt 0.274462 0.017837
vt 0.274462 0.492641
vt 0.304276 0.017837
vt 0.304276 0.492641
vt 0.334089 0.017837
vt 0.334089 0.492641
vt 0.363902 0.017837
vt 0.363902 0.492641
vt 0.393715 0.017837
vt 0.393715 0.492641
vt 0.423529 0.017837
vt 0.423529 0.492641
vt 0.453342 0.017837
vt 0.453342 0.492641
vt 0.483155 0.017837
vt 0.483155 0.492641
vt 0.491627 0.497920
vt 0.517868 0.497920
vt 0.517868 0.974823
vt 0.491627 0.974823
vt 0.545710 0.497920
vt 0.545710 0.974823
vt 0.574715 0.497920
vt 0.574715 0.974823
vt 0.604423 0.497920
vt 0.604423 0.974823
vt 0.634368 0.497920
vt 0.634368 0.974823
vt 0.664077 0.497920
vt 0.664077 0.974823
vt 0.693081 0.497920
vt 0.693081 0.974823
vt 0.720923 0.497920
vt 0.720923 0.974823
vt 0.009125 0.017837
vt 0.983933 0.973303
vt 0.754455 0.017837
vt 0.748493 0.492641
vn 0.992115 0.000000 -0.125329
vn 0.968583 0.000000 -0.248690
vn 0.968583 0.000000 -0.248690
vn 0.992115 0.000000 -0.125329
vn 0.929776 0.000000 -0.368125
vn 0.929776 0.000000 -0.368125
vn 0.876307 0.000000 -0.481754
vn 0.876307 0.000000 -0.481754
vn 0.809017 0.000000 -0.587785
vn 0.809017 0.000000 -0.587785
vn 0.728969 0.000000 -0.684547
vn 0.728969 0.000000 -0.684547
vn 0.637424 0.000000 -0.770513
vn 0.637424 0.000000 -0.770513
vn 0.535827 0.000000 -0.844328
vn 0.535827 0.000000 -0.844328
vn 0.425779 0.000000 -0.904827
vn 0.425779 0.000000 -0.904827
vn 0.309017 0.000000 -0.951057
vn 0.309017 0.000000 -0.951057
vn 0.187381 0.000000 -0.982287
vn 0.187381 0.000000 -0.982287
vn 0.062790 0.000000 -0.998027
vn 0.062790 0.000000 -0.998027
vn -0.062791 0.000000 -0.998027
vn -0.062791 0.000000 -0.998027
vn -0.187382 0.000000 -0.982287
vn -0.187382 0.000000 -0.982287
vn -0.309017 0.000000 -0.951056
vn -0.309017 0.000000 -0.951056
vn -0.425780 0.000000 -0.904827
vn -0.425780 0.000000 -0.904827
vn -0.535827 0.000000 -0.844328
vn -0.535827 0.000000 -0.844328
vn -0.637424 0.000000 -0.770513
vn -0.637424 0.000000 -0.770513
vn -0.728969 0.000000 -0.684547
vn -0.728969 0.000000 -0.684547
vn -0.809017 0.000000 -0.587785
vn -0.809017 0.000000 -0.587785
vn -0.876307 0.000000 -0.481754
vn -0.876307 0.000000 -0.481754
vn -0.929777 0.000000 -0.368124
vn -0.929777 0.000000 -0.368124
vn -0.968583 0.000000 -0.248690
vn -0.968583 0.000000 -0.248690
vn -0.992115 0.000000 -0.125333
vn -0.992115 0.000000 -0.125333
vn -1.000000 0.000000 0.000000
vn -1.000000 0.000000 0.000000
vn -0.992115 0.000000 0.125333
vn -0.992115 0.000000 0.125333
vn -0.968583 0.000000 0.248690
vn -0.968583 0.000000 0.248690
vn -0.929776 0.000000 0.368125
vn -0.929776 0.000000 0.368125
vn -0.876306 0.000000 0.481754
vn -0.876306 0.000000 0.481754
vn -0.809017 0.000000 0.587786
vn -0.809017 0.000000 0.587786
vn -0.728969 0.000000 0.684547
vn -0.728969 0.000000 0.684547
vn -0.637424 0.000000 0.770513
vn -0.637424 0.000000 0.770513
vn -0.535826 0.000000 0.844328
vn -0.535826 0.000000 0.844328
vn -0.425779 0.000000 0.904827
vn -0.425779 0.000000 0.904827
vn -0.309017 0.000000 0.951057
vn -0.309017 0.000000 0.951057
vn -0.187381 0.000000 0.982287
vn -0.187381 0.000000 0.982287
vn -0.062790 0.000000 0.998027
vn -0.062790 0.000000 0.998027
vn 0.062791 0.000000 0.998027
vn 0.062791 0.000000 0.998027
vn 0.187382 0.000000 0.982287
vn 0.187382 0.000000 0.982287
vn 0.309018 0.000000 0.951056
vn 0.309018 0.000000 0.951056
vn 0.425780 0.000000 0.904827
vn 0.425780 0.000000 0.904827
vn 0.535827 0.000000 0.844328
vn 0.535827 0.000000 0.844328
vn 0.637424 0.000000 0.770513
vn 0.637424 0.000000 0.770513
vn 0.728969 0.000000 0.684547
vn 0.728969 0.000000 0.684547
vn 0.809017 0.000000 0.587785
vn 0.809017 0.000000 0.587785
vn 0.876307 0.000000 0.481753
vn 0.876307 0.000000 0.481753
vn 0.929777 0.000000 0.368124
vn 0.929777 0.000000 0.368124
vn 0.968583 0.000000 0.248690
vn 0.968583 0.000000 0.248690
vn 0.992115 0.000000 0.125333
vn 0.992115 0.000000 0.125333
vn 1.000000 0.000000 0.000004
vn 1.000000 0.000000 0.000004
vn 0.000000 1.000000 0.000000
vn 0.000000 1.000000 0.000000
vn 0.000000 1.000000 0.000000
vn 0.000000 1.000000 0.000000
vn 0.000000 1.000000 0.000000
vn 0.000000 1.000000 0.000000
vn 0.000000 1.000000 0.000000
vn 0.000000 1.000000 0.000000
vn 0.000000 1.000000 0.000000
vn 0.000000 1.000000 0.000000
vn 0.000000 1.000000 0.000000
vn 0.000000 1.000000 0.000000
vn 0.000000 1.000000 0.000000
vn 0.000000 1.000000 0.000000
vn 0.000000 1.000000 0.000000
vn 0.000000 1.000000 0.000000
vn 0.000000 1.000000 0.000000
vn 0.000000 1.000000 0.000000
vn 0.000000 1.000000 0.000000
vn 0.000000 1.000000 0.000000
vn 0.000000 1.000000 0.000000
vn 0.000000 1.000000 0.000000
vn 0.000000 1.000000 0.000000
vn 0.000000 1.000000 0.000000
vn 0.000000 1.000000 0.000000
vn 0.000000 1.000000 0.000000
vn 0.000000 1.000000 0.000000
vn 0.000000 1.000000 0.000000
vn 0.000000 1.000000 0.000000
vn 0.000000 1.000000 0.000000
vn 0.000000 1.000000 0.000000
vn 0.000000 1.000000 0.000000
vn 0.000000 1.000000 0.000000
vn 0.000000 1.000000 0.000000
vn 0.000000 1.000000 0.000000
vn 0.000000 1.000000 0.000000
vn 0.000000 1.000000 0.000000
vn 0.000000 1.000000 0.000000
vn 0.000000 1.000000 0.000000
vn 0.000000 1.000000 0.000000
vn 0.000000 1.000000 0.000000
vn 0.000000 1.000000 0.000000
vn 0.000000 1.000000 0.000000
vn 0.000000 1.000000 0.000000
vn 0.000000 1.000000 0.000000
vn 0.000000 1.000000 0.000000
vn 0.000000 1.000000 0.000000
vn 0.000000 1.000000 0.000000
vn 0.000000 1.000000 0.000000
vn 0.000000 1.000000 0.000000
vn 0.000000 1.000000 0.000000
s 1
g pCylinder1
usemtl initialShadingGroup
f 1/1/1 2/2/2 52/3/3 51/4/4
f 2/2/2 3/5/5 53/6/6 52/3/3
f 3/5/5 4/9/7 54/10/8 53/6/6
f 4/9/7 5/13/9 55/14/10 54/10/8
f 5/13/9 6/17/11 56/18/12 55/14/10
f 6/17/11 7/21/13 57/22/14 56/18/12
f 7/21/13 8/25/15 58/26/16 57/22/14
f 8/25/15 9/120/17 59/121/18 58/26/16
f 9/120/17 10/122/19 60/123/20 59/121/18
f 10/122/19 11/124/21 61/125/22 60/123/20
f 11/124/21 12/126/23 62/127/24 61/125/22
f 12/126/23 13/128/25 63/129/26 62/127/24
f 13/128/25 14/130/27 64/131/28 63/129/26
f 14/130/27 15/132/29 65/133/30 64/131/28
f 15/132/29 16/134/31 66/135/32 65/133/30
f 16/134/31 17/53/33 67/54/34 66/135/32
f 17/53/33 18/49/35 68/50/36 67/54/34
f 18/49/35 19/45/37 69/46/38 68/50/36
f 19/45/37 20/41/39 70/42/40 69/46/38
f 20/41/39 21/35/41 71/38/42 70/42/40
f 21/35/41 22/36/43 72/37/44 71/38/42
f 22/36/43 23/39/45 73/40/46 72/37/44
f 23/39/45 24/43/47 74/44/48 73/40/46
f 24/43/47 25/47/49 75/157/50 74/44/48
f 25/156/49 26/51/51 76/52/52 75/48/50
f 26/51/51 27/55/53 77/56/54 76/52/52
f 27/55/53 28/57/55 78/58/56 77/56/54
f 28/57/55 29/59/57 79/60/58 78/58/56
f 29/59/57 30/61/59 80/62/60 79/60/58
f 30/61/59 31/63/61 81/64/62 80/62/60
f 31/63/61 32/65/63 82/66/64 81/64/62
f 32/65/63 33/67/65 83/68/66 82/66/64
f 33/136/65 34/137/67 84/138/68 83/139/66
f 34/137/67 35/140/69 85/141/70 84/138/68
f 35/140/69 36/142/71 86/143/72 85/141/70
f 36/142/71 37/144/73 87/145/74 86/143/72
f 37/144/73 38/146/75 88/147/76 87/145/74
f 38/146/75 39/148/77 89/149/78 88/147/76
f 39/148/77 40/150/79 90/151/80 89/149/78
f 40/150/79 41/152/81 91/153/82 90/151/80
f 41/152/81 42/33/83 92/34/84 91/153/82
f 42/33/83 43/31/85 93/32/86 92/34/84
f 43/31/85 44/29/87 94/30/88 93/32/86
f 44/29/87 45/27/89 95/28/90 94/30/88
f 45/27/89 46/23/91 96/24/92 95/28/90
f 46/23/91 47/19/93 97/20/94 96/24/92
f 47/19/93 48/15/95 98/16/96 97/20/94
f 48/15/95 49/11/97 99/12/98 98/16/96
f 49/11/97 50/7/99 100/155/100 99/12/98
f 50/154/99 1/1/1 51/4/4 100/8/100
s 2
f 51/69/101 52/70/102 101/71/103
f 52/70/102 53/72/104 101/71/103
f 53/72/104 54/74/105 101/71/103
f 54/74/105 55/76/106 101/71/103
f 55/76/106 56/78/107 101/71/103
f 56/78/107 57/80/108 101/71/103
f 57/80/108 58/82/109 101/71/103
f 58/82/109 59/84/110 101/71/103
f 59/84/110 60/86/111 101/71/103
f 60/86/111 61/88/112 101/71/103
f 61/88/112 62/90/113 101/71/103
f 62/90/113 63/92/114 101/71/103
f 63/92/114 64/94/115 101/71/103
f 64/94/115 65/96/116 101/71/103
f 65/96/116 66/98/117 101/71/103
f 66/98/117 67/100/118 101/71/103
f 67/100/118 68/102/119 101/71/103
f 68/102/119 69/104/120 101/71/103
f 69/104/120 70/106/121 101/71/103
f 70/106/121 71/108/122 101/71/103
f 71/108/122 72/110/123 101/71/103
f 72/110/123 73/112/124 101/71/103
f 73/112/124 74/114/125 101/71/103
f 74/114/125 75/116/126 101/71/103
f 75/116/126 76/118/127 101/71/103
f 76/118/127 77/119/128 101/71/103
f 77/119/128 78/117/129 101/71/103
f 78/117/129 79/115/130 101/71/103
f 79/115/130 80/113/131 101/71/103
f 80/113/131 81/111/132 101/71/103
f 81/111/132 82/109/133 101/71/103
f 82/109/133 83/107/134 101/71/103
f 83/107/134 84/105/135 101/71/103
f 84/105/135 85/103/136 101/71/103
f 85/103/136 86/101/137 101/71/103
f 86/101/137 87/99/138 101/71/103
f 87/99/138 88/97/139 101/71/103
f 88/97/139 89/95/140 101/71/103
f 89/95/140 90/93/141 101/71/103
f 90/93/141 91/91/142 101/71/103
f 91/91/142 92/89/143 101/71/103
f 92/89/143 93/87/144 101/71/103
f 93/87/144 94/85/145 101/71/103
f 94/85/145 95/83/146 101/71/103
f 95/83/146 96/81/147 101/71/103
f 96/81/147 97/79/148 101/71/103
f 97/79/148 98/77/149 101/71/103
f 98/77/149 99/75/150 101/71/103
f 99/75/150 100/73/151 101/71/103
f 100/73/151 51/69/101 101/71/103
